<svg width="599" height="599" viewBox="0 0 599 599" fill="none" xmlns="http://www.w3.org/2000/svg">
<rect width="599" height="599" rx="299.5" fill="#4E1FAD"/>
<rect x="101" y="101" width="397" height="397" rx="198.5" fill="#4E1FAD"/>
<g clip-path="url(#clip0_233_1009)">
<mask id="mask0_233_1009" style="mask-type:alpha" maskUnits="userSpaceOnUse" x="70" y="61" width="459" height="504">
<path d="M266.106 61.3416C320.54 60.0595 374.999 62.3877 429.125 68.3104C447.439 70.2475 466.541 71.4424 483.935 77.3798C481.987 82.0609 478.022 87.3694 475.035 91.6051L461.681 110.251C406.646 187.036 343.426 257.611 273.135 320.734C256.54 335.391 239.741 349.559 221.123 361.659C212.675 367.151 200.321 373.847 201.709 385.872C203.55 401.927 220.295 402.694 232.918 405.311C258.132 410.539 284.739 424.192 287.539 453.019C288.148 458.524 288.222 464.075 287.76 469.593C286.098 489.423 277.431 509.123 267.144 525.902C264.755 529.799 261.807 535.64 258.397 538.518C257.904 538.55 257.412 538.577 256.918 538.593C247.276 538.952 237.661 537.895 228.113 537.284C207.861 536.07 187.643 534.341 167.479 532.109C152.18 530.552 135.179 529.495 120.18 525.915C113.866 524.408 104.495 518.123 99.7601 513.704C92.7814 507.25 87.5406 499.144 84.5215 490.131C81.3184 480.417 81.0893 471.825 79.7457 461.898C76.6288 437.682 74.4249 413.358 73.1391 388.979C72.3572 375.707 71.4248 362.651 70.932 349.331C68.3969 282.525 71.0354 215.622 78.8244 149.222C80.3638 136.989 81.5198 123.036 84.7653 111.243C87.2152 103.425 91.9303 95.7461 97.4319 89.7793C113.007 72.8874 137.205 72.1809 158.506 69.6761C194.257 65.5697 230.148 62.7894 266.106 61.3416ZM287.17 249.258C298.679 247.483 306.538 236.672 304.674 225.178C302.811 213.684 291.938 205.91 280.458 207.862C269.102 209.793 261.43 220.521 263.273 231.89C265.117 243.259 275.786 251.013 287.17 249.258ZM189.649 249.444C201.144 248.744 209.914 238.889 209.275 227.392C208.635 215.894 198.826 207.073 187.324 207.653C175.736 208.236 166.834 218.133 167.479 229.717C168.123 241.3 178.068 250.149 189.649 249.444Z" fill="white"/>
<path d="M395.426 421.41C401.294 420.898 409.989 421.004 416.131 420.9L454.08 420.278L494.772 419.585C502.166 419.461 509.759 419.232 517.138 419.355C519.54 419.612 522.159 419.202 523.79 421.398C527.798 426.794 526.928 436.553 527.026 443.05L527.427 463.346L527.909 493.382C528.232 515.183 529.805 533.578 511.217 549.191C507.743 552.254 503.833 554.786 499.616 556.714C489.077 561.441 477.86 560.918 466.57 561.112C458.743 561.247 450.911 561.332 443.084 561.463L415.557 561.954C410.74 562.036 405.816 562.331 401.009 562.099C398.902 561.997 396.788 561.667 394.823 560.885C392.996 560.153 392.066 559.168 391.389 557.327C389.223 551.398 389.309 491.639 389.177 480.681C388.996 465.725 388.306 450.652 388.654 435.703C388.724 432.729 388.549 427.816 389.967 425.115C391.17 422.816 393.019 422.051 395.426 421.41Z" fill="white"/>
<path d="M464.091 255.054C473.213 254.295 485.035 254.756 494.346 254.386C499.784 254.17 514.528 253.694 519.144 254.668C520.489 256.045 521.51 257.366 522.25 259.332C522.864 260.966 523.184 262.717 523.368 264.489C524.905 279.399 526.782 382.454 523.817 390.535C523.023 392.698 521.385 393.632 519.662 394.42C510.655 395.571 501.034 394.994 491.931 395.357C483.81 395.59 475.759 395.947 467.635 395.584C457.963 395.151 459.758 381.918 459.624 373.457L459.207 347.737L458.382 296.637C458.213 286.167 457.894 275.688 458.153 265.224C458.289 259.816 459.322 256.255 464.091 255.054Z" fill="white"/>
<path d="M500.935 69.3536C503.674 69.9108 508.337 77.1679 509.894 79.419C518.386 91.6993 521.072 106.537 521.558 121.135C522.285 143.027 522.292 165.04 522.681 186.946C522.708 198.302 523.942 209.808 523.105 221.139C522.762 225.787 518.33 227.87 514.132 228.206C506.59 228.811 498.949 228.774 491.38 228.9L450.037 229.701L426.133 230.121C430.424 216.562 439.794 198.691 445.903 185.455L482.435 108.078C488.711 94.9486 494.985 82.6682 500.935 69.3536Z" fill="white"/>
<path d="M339.039 422.386C344.558 421.987 357.057 420.976 361.658 424.404C364.514 426.53 364.997 433.248 365.051 436.787C365.424 462.863 365.904 488.946 366.315 515.025L366.802 539.989C366.882 544.185 367.179 549.005 366.831 552.986C366.28 559.331 363.675 562.218 357.521 562.658C350.144 563.186 342.598 563.168 335.296 563.29L294.319 563.992C285.772 564.168 277.023 563.932 268.546 564.247C269.852 560.897 273.45 554.563 275.265 551.133C279.354 543.483 283.321 535.768 287.163 527.994C300.546 500.992 313.369 473.75 326.364 446.565C328.474 442.156 335.651 424.338 339.039 422.386Z" fill="white"/>
<path d="M415.184 255.672C425.015 255.164 431.78 254.68 432.276 266.45C432.618 274.503 432.728 282.486 432.84 290.544L433.466 331.759L434.066 366.926C434.182 373.832 434.42 380.838 434.026 387.723C433.796 391.701 431.123 394.96 427.111 395.499C419.089 396.58 410.736 396.4 402.63 396.512C390.277 396.577 377.927 396.878 365.586 397.421C359.888 397.456 354.192 397.59 348.498 397.821C349.371 395.637 350.445 393.503 351.44 391.37C357.275 378.858 363.369 366.485 369.074 353.915L398.037 290.854C400.235 286.116 412.875 257.667 415.184 255.672Z" fill="white"/>
</mask>
<g mask="url(#mask0_233_1009)">
<g filter="url(#filter0_i_233_1009)">
<ellipse cx="300.018" cy="299.521" rx="228.129" ry="228.129" fill="white"/>
</g>
</g>
</g>
<defs>
<filter id="filter0_i_233_1009" x="69.8887" y="71.3914" width="458.258" height="459.258" filterUnits="userSpaceOnUse" color-interpolation-filters="sRGB">
<feFlood flood-opacity="0" result="BackgroundImageFix"/>
<feBlend mode="normal" in="SourceGraphic" in2="BackgroundImageFix" result="shape"/>
<feColorMatrix in="SourceAlpha" type="matrix" values="0 0 0 0 0 0 0 0 0 0 0 0 0 0 0 0 0 0 127 0" result="hardAlpha"/>
<feOffset dx="-2" dy="3"/>
<feGaussianBlur stdDeviation="2.6"/>
<feComposite in2="hardAlpha" operator="arithmetic" k2="-1" k3="1"/>
<feColorMatrix type="matrix" values="0 0 0 0 0 0 0 0 0 0 0 0 0 0 0 0 0 0 0.2 0"/>
<feBlend mode="normal" in2="shape" result="effect1_innerShadow_233_1009"/>
</filter>
<clipPath id="clip0_233_1009">
<rect x="44" y="35" width="512" height="529" rx="256" fill="white"/>
</clipPath>
</defs>
</svg>
