<svg viewBox="0 0 512 529" fill="none" xmlns="http://www.w3.org/2000/svg">
<g clip-path="url(#clip0_233_1012)">
<mask id="mask0_233_1012" style="mask-type:alpha" maskUnits="userSpaceOnUse" x="26" y="26" width="459" height="504">
<path d="M222.106 26.3416C276.54 25.0595 330.999 27.3877 385.125 33.3104C403.439 35.2475 422.541 36.4424 439.935 42.3798C437.987 47.0609 434.022 52.3694 431.035 56.6051L417.681 75.2513C362.646 152.036 299.426 222.611 229.135 285.734C212.54 300.391 195.741 314.559 177.123 326.659C168.675 332.151 156.321 338.847 157.709 350.872C159.55 366.927 176.295 367.694 188.918 370.311C214.132 375.539 240.739 389.192 243.539 418.019C244.148 423.524 244.222 429.075 243.76 434.593C242.098 454.423 233.431 474.123 223.144 490.902C220.755 494.799 217.807 500.64 214.397 503.518C213.904 503.55 213.412 503.577 212.918 503.593C203.276 503.952 193.661 502.895 184.113 502.284C163.861 501.07 143.643 499.341 123.479 497.109C108.18 495.552 91.1789 494.495 76.1798 490.915C69.8656 489.408 60.4954 483.123 55.7601 478.704C48.7814 472.25 43.5406 464.144 40.5215 455.131C37.3184 445.417 37.0893 436.825 35.7457 426.898C32.6288 402.682 30.4249 378.358 29.1391 353.979C28.3572 340.707 27.4248 327.651 26.932 314.331C24.3969 247.525 27.0354 180.622 34.8244 114.222C36.3638 101.989 37.5198 88.0364 40.7653 76.2433C43.2152 68.425 47.9303 60.7461 53.4319 54.7793C69.0073 37.8874 93.2048 37.1809 114.506 34.6761C150.257 30.5697 186.148 27.7894 222.106 26.3416ZM243.17 214.258C254.679 212.483 262.538 201.672 260.674 190.178C258.811 178.684 247.938 170.91 236.458 172.862C225.102 174.793 217.43 185.521 219.273 196.89C221.117 208.259 231.786 216.013 243.17 214.258ZM145.649 214.444C157.144 213.744 165.914 203.889 165.275 192.392C164.635 180.894 154.826 172.073 143.324 172.653C131.736 173.236 122.834 183.133 123.479 194.717C124.123 206.3 134.068 215.149 145.649 214.444Z" fill="currentColor"/>
<path d="M351.426 386.41C357.294 385.898 365.989 386.004 372.131 385.9L410.08 385.278L450.772 384.585C458.166 384.461 465.759 384.232 473.138 384.355C475.54 384.612 478.159 384.202 479.79 386.398C483.798 391.794 482.928 401.553 483.026 408.05L483.427 428.346L483.909 458.382C484.232 480.183 485.805 498.578 467.217 514.191C463.743 517.254 459.833 519.786 455.616 521.714C445.077 526.441 433.86 525.918 422.57 526.112C414.743 526.247 406.911 526.332 399.084 526.463L371.557 526.954C366.74 527.036 361.816 527.331 357.009 527.099C354.902 526.997 352.788 526.667 350.823 525.885C348.996 525.153 348.066 524.168 347.389 522.327C345.223 516.398 345.309 456.639 345.177 445.681C344.996 430.725 344.306 415.652 344.654 400.703C344.724 397.729 344.549 392.816 345.967 390.115C347.17 387.816 349.019 387.051 351.426 386.41Z" fill="currentColor"/>
<path d="M420.091 220.054C429.213 219.295 441.035 219.756 450.346 219.386C455.784 219.17 470.528 218.694 475.144 219.668C476.489 221.045 477.51 222.366 478.25 224.332C478.864 225.966 479.184 227.717 479.368 229.489C480.905 244.399 482.782 347.454 479.817 355.535C479.023 357.698 477.385 358.632 475.662 359.42C466.655 360.571 457.034 359.994 447.931 360.357C439.81 360.59 431.759 360.947 423.635 360.584C413.963 360.151 415.758 346.918 415.624 338.457L415.207 312.737L414.382 261.637C414.213 251.167 413.894 240.688 414.153 230.224C414.289 224.816 415.322 221.255 420.091 220.054Z" fill="currentColor"/>
<path d="M456.935 34.3536C459.674 34.9108 464.337 42.1679 465.894 44.419C474.386 56.6993 477.072 71.5371 477.558 86.1349C478.285 108.027 478.292 130.04 478.681 151.946C478.708 163.302 479.942 174.808 479.105 186.139C478.762 190.787 474.33 192.87 470.132 193.206C462.59 193.811 454.949 193.774 447.38 193.9L406.037 194.701L382.133 195.121C386.424 181.562 395.794 163.691 401.903 150.455L438.435 73.0785C444.711 59.9486 450.985 47.6682 456.935 34.3536Z" fill="currentColor"/>
<path d="M295.039 387.386C300.558 386.987 313.057 385.976 317.658 389.404C320.514 391.53 320.997 398.248 321.051 401.787C321.424 427.863 321.904 453.946 322.315 480.025L322.802 504.989C322.882 509.185 323.179 514.005 322.831 517.986C322.28 524.331 319.675 527.218 313.521 527.658C306.144 528.186 298.598 528.168 291.296 528.29L250.319 528.992C241.772 529.168 233.023 528.932 224.546 529.247C225.852 525.897 229.45 519.563 231.265 516.133C235.354 508.483 239.321 500.768 243.163 492.994C256.546 465.992 269.369 438.75 282.364 411.565C284.474 407.156 291.651 389.338 295.039 387.386Z" fill="currentColor"/>
<path d="M371.184 220.672C381.015 220.164 387.78 219.68 388.276 231.45C388.618 239.503 388.728 247.486 388.84 255.544L389.466 296.759L390.066 331.926C390.182 338.832 390.42 345.838 390.026 352.723C389.796 356.701 387.123 359.96 383.111 360.499C375.089 361.58 366.736 361.4 358.63 361.512C346.277 361.577 333.927 361.878 321.586 362.421C315.888 362.456 310.192 362.59 304.498 362.821C305.371 360.637 306.445 358.503 307.44 356.37C313.275 343.858 319.369 331.485 325.074 318.915L354.037 255.854C356.235 251.116 368.875 222.667 371.184 220.672Z" fill="currentColor"/>
</mask>
<g mask="url(#mask0_233_1012)">
<g filter="url(#filter0_i_233_1012)">
<ellipse cx="256.018" cy="264.521" rx="228.129" ry="228.129" fill="currentColor"/>
</g>
</g>
</g>
<defs>
<filter id="filter0_i_233_1012" x="25.8887" y="36.3914" width="458.258" height="459.258" filterUnits="userSpaceOnUse" color-interpolation-filters="sRGB">
<feFlood flood-opacity="0" result="BackgroundImageFix"/>
<feBlend mode="normal" in="SourceGraphic" in2="BackgroundImageFix" result="shape"/>
<feColorMatrix in="SourceAlpha" type="matrix" values="0 0 0 0 0 0 0 0 0 0 0 0 0 0 0 0 0 0 127 0" result="hardAlpha"/>
<feOffset dx="-2" dy="3"/>
<feGaussianBlur stdDeviation="2.6"/>
<feComposite in2="hardAlpha" operator="arithmetic" k2="-1" k3="1"/>
<feColorMatrix type="matrix" values="0 0 0 0 0 0 0 0 0 0 0 0 0 0 0 0 0 0 0.2 0"/>
<feBlend mode="normal" in2="shape" result="effect1_innerShadow_233_1012"/>
</filter>
<clipPath id="clip0_233_1012">
<rect width="512" height="529" rx="256" fill="currentColor"/>
</clipPath>
</defs>
</svg>
